
		<svg xmlns="http://www.w3.org/2000/svg" xmlns:xlink="http://www.w3.org/1999/xlink" version="1.1" width="3195.567144719687" height="1222.2946544980443">
			
			<g transform="scale(9.778357235984354) translate(10, 10)">
				<defs id="SvgjsDefs1039"></defs><g id="SvgjsG1040" featureKey="Q2968X-0" transform="matrix(7.018276691436768,0,0,7.018276691436768,-1.9738903394255876,-35.09138381201045)" fill="#ffc100"><path d="M3.04 5 q0.3 0 0.51 0.21 t0.21 0.51 l0 1.46 q0 0.3 -0.21 0.51 t-0.51 0.21 l-2.06 0 q-0.28 0 -0.49 -0.21 t-0.21 -0.51 l0 -1.46 q0 -0.3 0.21 -0.51 t0.49 -0.21 l2.06 0 z M11.98 5 q0.28 0 0.49 0.21 t0.21 0.51 l0 1.46 q0 0.3 -0.21 0.51 t-0.49 0.21 l-4.02 0 l0 11.36 q0 0.28 -0.21 0.49 t-0.49 0.21 l-1.54 0 q-0.3 0 -0.51 -0.21 t-0.21 -0.49 l0 -13.54 q0 -0.3 0.21 -0.51 t0.51 -0.21 l6.26 0 z"></path></g><g id="SvgjsG1041" featureKey="dIKgZO-0" transform="matrix(1.4357558488845825,0,0,1.4357558488845825,106.59619368421053,34.82122105263158)" fill="#ffc100"><path d="M3.04 5 q0.3 0 0.51 0.21 t0.21 0.51 l0 1.46 q0 0.3 -0.21 0.51 t-0.51 0.21 l-2.06 0 q-0.28 0 -0.49 -0.21 t-0.21 -0.51 l0 -1.46 q0 -0.3 0.21 -0.51 t0.49 -0.21 l2.06 0 z M11.98 5 q0.28 0 0.49 0.21 t0.21 0.51 l0 1.46 q0 0.3 -0.21 0.51 t-0.49 0.21 l-4.02 0 l0 11.36 q0 0.28 -0.21 0.49 t-0.49 0.21 l-1.54 0 q-0.3 0 -0.51 -0.21 t-0.21 -0.49 l0 -13.54 q0 -0.3 0.21 -0.51 t0.51 -0.21 l6.26 0 z M25.04 5 q0.3 0 0.5 0.21 t0.2 0.49 l0 1.44 q0 0.28 -0.2 0.49 t-0.5 0.21 l-7.56 0 l0 3.06 l6.68 0 q0.3 0 0.5 0.21 t0.2 0.49 l0 1.46 q0 0.28 -0.2 0.49 t-0.5 0.21 l-6.68 0 l0 3.08 l7.56 0 q0.3 0 0.5 0.21 t0.2 0.49 l0 1.44 q0 0.28 -0.2 0.49 t-0.5 0.21 l-9.76 0 q-0.28 0 -0.49 -0.21 t-0.21 -0.49 l0 -13.28 q0 -0.28 0.21 -0.49 t0.49 -0.21 l9.76 0 z M32.68 8.22 q-0.82 0.34 -1.34 0.96 q-1.12 1.24 -1.12 3.32 t1.12 3.34 q1.16 1.3 3.44 1.3 q1.2 0 2.11 -0.61 t1.35 -1.63 q0.08 -0.2 0.25 -0.31 t0.39 -0.11 l1.58 0 q0.16 0 0.32 0.07 t0.24 0.21 q0.22 0.32 0.1 0.64 q-0.74 2.1 -2.44 3.3 q-1.82 1.3 -4.24 1.3 q-3.22 0 -5.24 -2.22 q-1.88 -2.12 -1.88 -5.28 t1.88 -5.28 q2.02 -2.22 5.24 -2.22 q2.42 0 4.24 1.3 q1.68 1.2 2.44 3.3 q0.12 0.34 -0.1 0.64 q-0.08 0.14 -0.24 0.21 t-0.32 0.07 l-1.58 0 q-0.22 0 -0.39 -0.11 t-0.25 -0.31 q-0.44 -1.02 -1.35 -1.63 t-2.11 -0.61 q-1.28 0 -2.1 0.36 z M54.86 5 q0.28 0 0.48 0.21 t0.2 0.49 l0 13.28 q0 0.28 -0.2 0.49 t-0.48 0.21 l-1.52 0 q-0.28 0 -0.48 -0.21 t-0.2 -0.49 l0 -5.22 l-6.34 0 l0 5.22 q0 0.28 -0.21 0.49 t-0.49 0.21 l-1.5 0 q-0.28 0 -0.49 -0.21 t-0.21 -0.49 l0 -13.28 q0 -0.28 0.21 -0.49 t0.49 -0.21 l1.5 0 q0.28 0 0.49 0.21 t0.21 0.49 l0 5.2 l6.34 0 l0 -5.2 q0 -0.28 0.2 -0.49 t0.48 -0.21 l1.52 0 z M68.47999999999999 12.42 q0.84 0.54 1.29 1.32 t0.45 1.74 q0 2.2 -1.7 3.42 q-1.58 1.1 -4.26 1.1 q-3.04 0 -4.7 -1.32 q-1.52 -1.22 -1.74 -3.44 q-0.04 -0.32 0.18 -0.54 t0.52 -0.22 l1.56 0 q0.28 0 0.48 0.18 t0.22 0.46 q0.04 0.52 0.27 0.89 t0.71 0.65 q0.92 0.52 2.52 0.52 q1.38 0 2.14 -0.32 q0.58 -0.26 0.78 -0.7 q0.12 -0.24 0.12 -0.62 q0 -0.24 -0.09 -0.4 t-0.29 -0.3 q-0.56 -0.38 -1.48 -0.66 q-0.8 -0.24 -2.14 -0.56 q-1.22 -0.26 -2.3 -0.7 q-1.22 -0.52 -1.92 -1.24 q-0.88 -0.88 -0.88 -2.3 q0 -1.98 1.5 -3.2 q1.46 -1.18 4.22 -1.18 t4.34 1.32 q1.48 1.22 1.58 3.14 q0.04 0.28 -0.18 0.52 q-0.24 0.2 -0.5 0.2 l-1.56 0 q-0.26 0 -0.46 -0.17 t-0.22 -0.43 q-0.06 -0.52 -0.34 -0.86 q-0.4 -0.5 -1.28 -0.74 q-0.6 -0.18 -1.53 -0.18 t-1.48 0.19 t-0.81 0.41 t-0.32 0.44 q-0.1 0.34 -0.1 0.64 q0 0.16 0.18 0.34 q0.36 0.32 0.8 0.48 q0.56 0.24 1.38 0.44 t1.71 0.42 t1.69 0.48 q0.94 0.32 1.64 0.78 z M90.68 5 q0.34 0 0.56 0.28 q0.1 0.14 0.13 0.31 t-0.03 0.31 l-4.12 13.3 q-0.08 0.22 -0.26 0.35 t-0.42 0.13 l-1.7 0 q-0.22 0 -0.41 -0.14 t-0.25 -0.34 l-2.94 -9.1 l-2.92 9.1 q-0.08 0.22 -0.26 0.35 t-0.4 0.13 l-1.72 0 q-0.22 0 -0.4 -0.13 t-0.26 -0.35 l-4.12 -13.3 q-0.06 -0.14 -0.03 -0.31 t0.12 -0.31 t0.25 -0.21 t0.32 -0.07 l1.58 0 q0.22 0 0.41 0.14 t0.25 0.36 l2.76 9.02 l2.9 -9.04 q0.08 -0.22 0.26 -0.35 t0.4 -0.13 l1.74 0 q0.22 0 0.4 0.13 t0.26 0.35 l2.88 9.04 l2.76 -9.02 q0.08 -0.22 0.26 -0.36 t0.42 -0.14 l1.58 0 z M95.39999999999999 5 q0.28 0 0.49 0.21 t0.21 0.49 l0 13.28 q0 0.28 -0.21 0.49 t-0.49 0.21 l-1.5 0 q-0.28 0 -0.49 -0.21 t-0.21 -0.49 l0 -13.28 q0 -0.28 0.21 -0.49 t0.49 -0.21 l1.5 0 z M109.48 5 q0.28 0 0.48 0.21 t0.2 0.49 l0 1.44 q0 0.28 -0.2 0.49 t-0.48 0.21 l-3.94 0 l0 11.14 q0 0.28 -0.21 0.49 t-0.49 0.21 l-1.5 0 q-0.3 0 -0.5 -0.21 t-0.2 -0.49 l0 -11.14 l-3.94 0 q-0.28 0 -0.49 -0.21 t-0.21 -0.49 l0 -1.44 q0 -0.28 0.21 -0.49 t0.49 -0.21 l10.78 0 z M116.58 8.22 q-0.82 0.34 -1.34 0.96 q-1.12 1.24 -1.12 3.32 t1.12 3.34 q1.16 1.3 3.44 1.3 q1.2 0 2.11 -0.61 t1.35 -1.63 q0.08 -0.2 0.25 -0.31 t0.39 -0.11 l1.58 0 q0.16 0 0.32 0.07 t0.24 0.21 q0.22 0.32 0.1 0.64 q-0.74 2.1 -2.44 3.3 q-1.82 1.3 -4.24 1.3 q-3.22 0 -5.24 -2.22 q-1.88 -2.12 -1.88 -5.28 t1.88 -5.28 q2.02 -2.22 5.24 -2.22 q2.42 0 4.24 1.3 q1.68 1.2 2.44 3.3 q0.12 0.34 -0.1 0.64 q-0.08 0.14 -0.24 0.21 t-0.32 0.07 l-1.58 0 q-0.22 0 -0.39 -0.11 t-0.25 -0.31 q-0.44 -1.02 -1.35 -1.63 t-2.11 -0.61 q-1.28 0 -2.1 0.36 z M138.76 5 q0.28 0 0.48 0.21 t0.2 0.49 l0 13.28 q0 0.28 -0.2 0.49 t-0.48 0.21 l-1.52 0 q-0.28 0 -0.48 -0.21 t-0.2 -0.49 l0 -5.22 l-6.34 0 l0 5.22 q0 0.28 -0.21 0.49 t-0.49 0.21 l-1.5 0 q-0.28 0 -0.49 -0.21 t-0.21 -0.49 l0 -13.28 q0 -0.28 0.21 -0.49 t0.49 -0.21 l1.5 0 q0.28 0 0.49 0.21 t0.21 0.49 l0 5.2 l6.34 0 l0 -5.2 q0 -0.28 0.2 -0.49 t0.48 -0.21 l1.52 0 z"></path></g>
			</g>
		</svg>
	